<svg xmlns="http://www.w3.org/2000/svg" xmlns:xlink="http://www.w3.org/1999/xlink" viewBox="0 0 949.71 321.92"><defs><style>.a{fill:#a1c4cf;}.b{fill:url(#a);}.c{fill:url(#b);}.d{fill:url(#c);}.e{fill:url(#d);}.f{fill:url(#e);}.g{fill:url(#f);}.h{fill:url(#g);}.i{fill:url(#h);}.j{fill:url(#i);}.k{fill:url(#j);}.l{fill:url(#k);}.m{fill:url(#l);}.n{fill:url(#m);}.o{filter:url(#n);}.p{fill:#d8e6eb;}.q{fill:#609caf;}.r{fill:#2e4e59;}.s{fill:#406d7c;}.t{fill:#066a84;}</style><radialGradient id="a" cx="154.08" cy="24.68" r="43.31" gradientTransform="translate(167 195.13) rotate(-120) scale(1 3)" gradientUnits="userSpaceOnUse"><stop offset="0" stop-color="#d8e6eb"/><stop offset="1" stop-color="#a1c4cf"/></radialGradient><radialGradient id="b" cx="42.45" cy="77.2" r="4.01" gradientTransform="translate(-136.89 229.76) rotate(-120) scale(1 3)" xlink:href="#a"/><radialGradient id="c" cx="94.32" cy="34.87" r="10.26" gradientTransform="translate(50.88 168.85) rotate(-120) scale(1 3)" xlink:href="#a"/><radialGradient id="d" cx="142.61" cy="35.08" r="3.95" gradientTransform="translate(122.79 211.2) rotate(-120) scale(1 3)" xlink:href="#a"/><radialGradient id="e" cx="141.4" cy="41.69" r="0.6" gradientTransform="translate(103.77 226.69) rotate(-120) scale(1 3)" xlink:href="#a"/><radialGradient id="f" cx="166.04" cy="173.98" r="156.94" gradientTransform="translate(-202.96 578.76) rotate(-120) scale(1 3)" xlink:href="#a"/><radialGradient id="g" cx="323.13" cy="180.92" r="41.53" gradientTransform="translate(14.65 732.15) rotate(-120) scale(1 3)" xlink:href="#a"/><radialGradient id="h" cx="60.78" cy="53.91" r="19.83" gradientTransform="translate(-48.89 187.4) rotate(-120) scale(1 3)" xlink:href="#a"/><radialGradient id="i" cx="232.78" cy="22.88" r="15.15" gradientTransform="translate(289.74 258.78) rotate(-120) scale(1 3)" xlink:href="#a"/><radialGradient id="j" cx="93.11" cy="27.63" r="1.53" gradientTransform="translate(67.89 149.71) rotate(-120) scale(1 3)" xlink:href="#a"/><radialGradient id="k" cx="37.72" cy="76.74" r="0.92" gradientTransform="translate(-142.8 224.53) rotate(-120) scale(1 3)" xlink:href="#a"/><radialGradient id="l" cx="305.29" cy="83.9" r="11.32" gradientTransform="translate(239.95 474.14) rotate(-120) scale(1 3)" xlink:href="#a"/><radialGradient id="m" cx="316.91" cy="104.41" r="0.73" gradientTransform="translate(204.09 535.48) rotate(-120) scale(1 3)" xlink:href="#a"/><filter id="n" name="AI_Shadow_1"><feGaussianBlur result="blur" stdDeviation="4" in="SourceAlpha"/><feOffset result="offsetBlurredAlpha" dx="-5" dy="5" in="blur"/><feMerge><feMergeNode in="offsetBlurredAlpha"/><feMergeNode in="SourceGraphic"/></feMerge></filter></defs><title>br_logo</title><path class="a" d="M390,246.91h-2.54v-1.46H390V240h1.61v5.46h5v1.46h-5v10.57c0,5.07,3,5.72,4.57,5.72a4.52,4.52,0,0,0,.88-.08v1.5a5.38,5.38,0,0,1-1,.08c-2,0-6.11-.73-6.11-7.11Z" transform="translate(-8.5 -8.39)"/><path class="a" d="M400.69,237.65h1.61v11.07a8,8,0,0,1-.15,1.58h.08a8.86,8.86,0,0,1,8.15-5.42c5,0,6.34,3,6.34,7.49v12.18h-1.61v-11.6c0-3.34-.42-6.49-4.73-6.49a8.15,8.15,0,0,0-7.76,6.11,9.56,9.56,0,0,0-.31,2.61v9.38h-1.61Z" transform="translate(-8.5 -8.39)"/><path class="a" d="M430.43,244.87c5.23,0,7.84,4.11,7.84,8.76,0,.42-.08,1-.08,1H422.78c0,5.57,3.77,8.76,8.22,8.76a8.7,8.7,0,0,0,6-2.42l.88,1.34A10.47,10.47,0,0,1,431,265a9.66,9.66,0,0,1-9.91-10C421.09,248.48,425.51,244.87,430.43,244.87Zm6.15,8.3c-.19-4.69-3-6.8-6.19-6.8-3.53,0-6.8,2.3-7.49,6.8Z" transform="translate(-8.5 -8.39)"/><path class="a" d="M463.13,252.82h1.27v-.65c0-4.27-2.19-5.73-5.26-5.73a9,9,0,0,0-5.49,1.84l-.92-1.31a10.05,10.05,0,0,1,6.49-2.11c4.42,0,6.8,2.46,6.8,7.26v12.41H464.4V262a8.8,8.8,0,0,1,.15-1.73h-.08a7.39,7.39,0,0,1-6.72,4.73c-3.11,0-6.53-1.73-6.53-5.57C451.22,252.9,459.71,252.82,463.13,252.82Zm-5.3,10.68c4.19,0,6.57-4.34,6.57-8.15v-1h-1.23c-3.27,0-10.26,0-10.26,5C452.91,261.35,454.56,263.5,457.83,263.5Z" transform="translate(-8.5 -8.39)"/><path class="a" d="M472.24,246.91H469.7v-1.46h2.54V240h1.61v5.46h5v1.46h-5v10.57c0,5.07,3,5.72,4.57,5.72a4.52,4.52,0,0,0,.88-.08v1.5a5.38,5.38,0,0,1-1,.08c-2,0-6.11-.73-6.11-7.11Z" transform="translate(-8.5 -8.39)"/><path class="a" d="M482.73,237.65h1.61v22.51c0,2.69,1.38,3,2.27,3a4.61,4.61,0,0,0,.58,0v1.5a3.64,3.64,0,0,1-.69.08c-1.11,0-3.76-.42-3.76-4Z" transform="translate(-8.5 -8.39)"/><path class="a" d="M501.33,252.82h1.27v-.65c0-4.27-2.19-5.73-5.26-5.73a9,9,0,0,0-5.49,1.84l-.92-1.31a10.05,10.05,0,0,1,6.49-2.11c4.42,0,6.8,2.46,6.8,7.26v12.41H502.6V262a8.8,8.8,0,0,1,.15-1.73h-.08A7.39,7.39,0,0,1,496,265c-3.11,0-6.53-1.73-6.53-5.57C489.42,252.9,497.91,252.82,501.33,252.82ZM496,263.5c4.19,0,6.57-4.34,6.57-8.15v-1h-1.23c-3.27,0-10.26,0-10.26,5C491.11,261.35,492.76,263.5,496,263.5Z" transform="translate(-8.5 -8.39)"/><path class="a" d="M509.32,261a8.37,8.37,0,0,0,6,2.42c2.34,0,4.42-1.23,4.42-3.61,0-4.88-10.57-3.5-10.57-9.76,0-3.42,2.88-5.19,6.15-5.19,3.92,0,5.69,2.08,5.69,2.08l-1,1.31a6.57,6.57,0,0,0-4.84-1.81c-2.19,0-4.34,1-4.34,3.5,0,5,10.57,3.5,10.57,9.87,0,3.07-2.61,5.19-6.15,5.19a9.3,9.3,0,0,1-7-2.77Z" transform="translate(-8.5 -8.39)"/><path class="a" d="M544.33,244.87a9.88,9.88,0,0,1,10,10,10,10,0,1,1-19.9,0A9.88,9.88,0,0,1,544.33,244.87Zm0,18.56a8.35,8.35,0,0,0,8.26-8.61,8.26,8.26,0,1,0-16.52,0A8.35,8.35,0,0,0,544.33,263.43Z" transform="translate(-8.5 -8.39)"/><path class="a" d="M559.55,246.91h-2.42v-1.46h2.42v-.88c0-6.34,4.15-7.11,6.07-7.11a5.6,5.6,0,0,1,1,.08V239a4.47,4.47,0,0,0-.88-.08c-1.54,0-4.57.62-4.57,5.57v.92h5.26v1.46h-5.26v17.64h-1.61Z" transform="translate(-8.5 -8.39)"/><path class="a" d="M579.57,245.33h1.61v3.38a8,8,0,0,1-.15,1.58h.08a8.58,8.58,0,0,1,7.38-5.42c3.84,0,5.65,1.81,6.07,5.23h.08a8.36,8.36,0,0,1,7.3-5.23c5,0,6.42,2.92,6.42,7.49v12.18h-1.61v-11.6c0-3.61-.73-6.57-4.8-6.57-3.19,0-5.92,2.84-6.76,5.84a10,10,0,0,0-.38,3v9.38h-1.61v-11.6c0-3.3-.46-6.57-4.69-6.57-3.42,0-6.11,3-7,6.19a9.56,9.56,0,0,0-.31,2.61v9.38h-1.61Z" transform="translate(-8.5 -8.39)"/><path class="a" d="M624.42,252.82h1.27v-.65c0-4.27-2.19-5.73-5.26-5.73a9,9,0,0,0-5.49,1.84L614,247a10.05,10.05,0,0,1,6.49-2.11c4.42,0,6.8,2.46,6.8,7.26v12.41h-1.61V262a8.8,8.8,0,0,1,.15-1.73h-.08A7.39,7.39,0,0,1,619,265c-3.11,0-6.53-1.73-6.53-5.57C612.51,252.9,621,252.82,624.42,252.82Zm-5.3,10.68c4.19,0,6.57-4.34,6.57-8.15v-1h-1.23c-3.27,0-10.26,0-10.26,5C614.2,261.35,615.85,263.5,619.11,263.5Z" transform="translate(-8.5 -8.39)"/><path class="a" d="M633,245.33h1.61V249a8,8,0,0,1-.15,1.58h.08c1-3,3.11-5.38,6.15-5.38a6,6,0,0,1,1.11.12v1.61a6.32,6.32,0,0,0-.88-.08c-3,0-4.88,2.54-5.72,5.38a13.65,13.65,0,0,0-.58,4v8.3H633Z" transform="translate(-8.5 -8.39)"/><path class="a" d="M645.09,237.65H647v2.8h-1.92Zm.15,7.68h1.61v19.21h-1.61Z" transform="translate(-8.5 -8.39)"/><path class="a" d="M652.86,245.33h1.61v3.38a8,8,0,0,1-.15,1.58h.08a8.86,8.86,0,0,1,8.15-5.42c5,0,6.34,3,6.34,7.49v12.18h-1.61v-11.6c0-3.34-.42-6.49-4.73-6.49a8.15,8.15,0,0,0-7.76,6.11,9.56,9.56,0,0,0-.31,2.61v9.38h-1.61Z" transform="translate(-8.5 -8.39)"/><path class="a" d="M682.6,244.87c5.22,0,7.84,4.11,7.84,8.76,0,.42-.08,1-.08,1H675c0,5.57,3.77,8.76,8.22,8.76a8.7,8.7,0,0,0,6-2.42l.88,1.34a10.47,10.47,0,0,1-6.84,2.65,9.66,9.66,0,0,1-9.91-10C673.26,248.48,677.68,244.87,682.6,244.87Zm6.15,8.3c-.19-4.69-3-6.8-6.19-6.8-3.53,0-6.8,2.3-7.49,6.8Z" transform="translate(-8.5 -8.39)"/><path class="a" d="M705,245.33h1.61v2.31a9.8,9.8,0,0,1-.12,1.54h.08a7.2,7.2,0,0,1,6.92-4.3c5.15,0,8.3,4.11,8.3,10.07,0,6.11-3.57,10.07-8.53,10.07a7.34,7.34,0,0,1-6.72-4.34h-.08a8.56,8.56,0,0,1,.15,1.69v9.87H705Zm8.26,18.1c3.77,0,6.84-3.11,6.84-8.49,0-5.19-2.77-8.49-6.68-8.49-3.54,0-6.84,2.5-6.84,8.53C706.54,259.24,708.92,263.43,713.23,263.43Z" transform="translate(-8.5 -8.39)"/><path class="a" d="M726.45,245.33h1.61V249a8,8,0,0,1-.15,1.58H728c1-3,3.11-5.38,6.15-5.38a6,6,0,0,1,1.11.12v1.61a6.32,6.32,0,0,0-.88-.08c-3,0-4.88,2.54-5.72,5.38a13.65,13.65,0,0,0-.58,4v8.3h-1.61Z" transform="translate(-8.5 -8.39)"/><path class="a" d="M746.74,244.87a9.88,9.88,0,0,1,10,10,10,10,0,1,1-19.9,0A9.88,9.88,0,0,1,746.74,244.87Zm0,18.56a8.35,8.35,0,0,0,8.26-8.61,8.26,8.26,0,1,0-16.52,0A8.35,8.35,0,0,0,746.74,263.43Z" transform="translate(-8.5 -8.39)"/><path class="a" d="M761.88,246.91h-2.54v-1.46h2.54V240h1.61v5.46h5v1.46h-5v10.57c0,5.07,3,5.72,4.57,5.72a4.52,4.52,0,0,0,.88-.08v1.5a5.38,5.38,0,0,1-1,.08c-2,0-6.11-.73-6.11-7.11Z" transform="translate(-8.5 -8.39)"/><path class="a" d="M780.55,244.87c5.22,0,7.84,4.11,7.84,8.76,0,.42-.08,1-.08,1H772.91c0,5.57,3.77,8.76,8.22,8.76a8.7,8.7,0,0,0,6-2.42l.88,1.34a10.47,10.47,0,0,1-6.84,2.65,9.66,9.66,0,0,1-9.91-10C771.22,248.48,775.64,244.87,780.55,244.87Zm6.15,8.3c-.19-4.69-3-6.8-6.19-6.8-3.53,0-6.8,2.3-7.49,6.8Z" transform="translate(-8.5 -8.39)"/><path class="a" d="M801.61,244.87a9.27,9.27,0,0,1,6.88,2.73l-1,1.31a8.35,8.35,0,0,0-5.88-2.46,8.5,8.5,0,0,0,0,17,8.48,8.48,0,0,0,6.42-2.77l.85,1.34a9.8,9.8,0,0,1-7.26,3,9.66,9.66,0,0,1-9.91-10A9.77,9.77,0,0,1,801.61,244.87Z" transform="translate(-8.5 -8.39)"/><path class="a" d="M814.07,246.91h-2.54v-1.46h2.54V240h1.61v5.46h5v1.46h-5v10.57c0,5.07,3,5.72,4.57,5.72a4.52,4.52,0,0,0,.88-.08v1.5a5.38,5.38,0,0,1-1,.08c-2,0-6.11-.73-6.11-7.11Z" transform="translate(-8.5 -8.39)"/><path class="a" d="M832.74,244.87c5.23,0,7.84,4.11,7.84,8.76,0,.42-.08,1-.08,1H825.09c0,5.57,3.77,8.76,8.22,8.76a8.7,8.7,0,0,0,6-2.42l.88,1.34a10.47,10.47,0,0,1-6.84,2.65,9.66,9.66,0,0,1-9.91-10C823.4,248.48,827.82,244.87,832.74,244.87Zm6.15,8.3c-.19-4.69-3-6.8-6.19-6.8-3.53,0-6.8,2.3-7.49,6.8Z" transform="translate(-8.5 -8.39)"/><path class="a" d="M852.57,244.87a7.43,7.43,0,0,1,6.65,4.34h.08a8.08,8.08,0,0,1-.15-1.58v-10h1.61v26.89h-1.61v-2.42a6.24,6.24,0,0,1,.15-1.46h-.08a7.35,7.35,0,0,1-7,4.34c-5.15,0-8.3-4.11-8.3-10.07C844,248.83,847.54,244.87,852.57,244.87Zm-.23,18.56c3.53,0,6.84-2.5,6.84-8.53,0-4.26-2.19-8.45-6.69-8.45-3.76,0-6.84,3.11-6.84,8.49C845.65,260.12,848.42,263.43,852.34,263.43Z" transform="translate(-8.5 -8.39)"/><path class="a" d="M887,252.82h1.27v-.65c0-4.27-2.19-5.73-5.26-5.73a9,9,0,0,0-5.49,1.84l-.92-1.31a10.05,10.05,0,0,1,6.49-2.11c4.42,0,6.8,2.46,6.8,7.26v12.41h-1.61V262a8.8,8.8,0,0,1,.15-1.73h-.08a7.39,7.39,0,0,1-6.72,4.73c-3.11,0-6.53-1.73-6.53-5.57C875.05,252.9,883.54,252.82,887,252.82Zm-5.3,10.68c4.19,0,6.57-4.34,6.57-8.15v-1H887c-3.27,0-10.26,0-10.26,5C876.74,261.35,878.39,263.5,881.66,263.5Z" transform="translate(-8.5 -8.39)"/><path class="a" d="M895.57,245.33h1.61V249a8,8,0,0,1-.15,1.58h.08c1-3,3.11-5.38,6.15-5.38a6,6,0,0,1,1.11.12v1.61a6.32,6.32,0,0,0-.88-.08c-3,0-4.88,2.54-5.72,5.38a13.65,13.65,0,0,0-.58,4v8.3h-1.61Z" transform="translate(-8.5 -8.39)"/><path class="a" d="M915.32,244.87c5.22,0,7.84,4.11,7.84,8.76,0,.42-.08,1-.08,1H907.68c0,5.57,3.77,8.76,8.22,8.76a8.7,8.7,0,0,0,6-2.42l.88,1.34A10.47,10.47,0,0,1,915.9,265,9.66,9.66,0,0,1,906,255C906,248.48,910.41,244.87,915.32,244.87Zm6.15,8.3c-.19-4.69-3-6.8-6.19-6.8-3.53,0-6.8,2.3-7.49,6.8Z" transform="translate(-8.5 -8.39)"/><path class="a" d="M938.15,252.82h1.27v-.65c0-4.27-2.19-5.73-5.26-5.73a9,9,0,0,0-5.49,1.84l-.92-1.31a10.05,10.05,0,0,1,6.49-2.11c4.42,0,6.8,2.46,6.8,7.26v12.41h-1.61V262a8.8,8.8,0,0,1,.15-1.73h-.08a7.39,7.39,0,0,1-6.72,4.73c-3.11,0-6.53-1.73-6.53-5.57C926.24,252.9,934.73,252.82,938.15,252.82Zm-5.3,10.68c4.19,0,6.57-4.34,6.57-8.15v-1h-1.23c-3.27,0-10.26,0-10.26,5C927.93,261.35,929.58,263.5,932.85,263.5Z" transform="translate(-8.5 -8.39)"/><path class="a" d="M946.14,261a8.37,8.37,0,0,0,6,2.42c2.34,0,4.42-1.23,4.42-3.61,0-4.88-10.57-3.5-10.57-9.76,0-3.42,2.88-5.19,6.15-5.19,3.92,0,5.69,2.08,5.69,2.08l-1,1.31a6.57,6.57,0,0,0-4.84-1.81c-2.19,0-4.34,1-4.34,3.5,0,5,10.57,3.5,10.57,9.87,0,3.07-2.61,5.19-6.15,5.19a9.3,9.3,0,0,1-7-2.77Z" transform="translate(-8.5 -8.39)"/><path class="b" d="M97.21,26.79c1.78.58,3.9,0,5.84.21,1.24.1,2.58.43,2.33,2.25-.13.92.52,1.07,1.22,1.15a25,25,0,0,0,7-.24c.51-.08,1.16-.08,1.26-.77s-.52-.87-.89-1.22c-.57-.54-1.8-.72-1.5-1.74s1.41-.73,2.2-.74c3.1-.05,6.2-.06,9.3,0,.72,0,2,0,2,.67,0,.92-1.31.65-2.06.77-1.53.25-3.08.32-4.61.58-.9.15-1.89.6-1.94,1.58s1.11.78,1.78,1,1.58.5,1.26,1.4c-.6,1.67.08,2.58,1.49,3.23.32.15.7.27.59.74s-.53.83-.9.7c-2.35-.82-4,1.55-6.31,1.23-.83-.12-1.43.62-1.55,1.46s.56,1.18,1.25,1.5c1.58.73,3.2.27,4.75.1a28.13,28.13,0,0,0,4.92-1.22,2.9,2.9,0,0,1,2.54.2,2.77,2.77,0,0,0,4.28-2.18,1.86,1.86,0,0,1,0-.53c1.33-3-.17-4.37-2.94-5-.45-.1-1-.27-1.06-.83s.57-.87,1.06-1c2.55-.86,5-1.68,7.74-.18,1.7.94,3.67.29,5.41-.26a7.27,7.27,0,0,1,4.55-.16,3.81,3.81,0,0,0,2.63-.14c.54-.22,1.23-.28,1.36-1s-.51-.85-.9-1.2-1.06-.65-.86-1.22.92-.35,1.43-.47c4.48-1,9.23-1.19,13-4.33.61-.51,1.29-1,1.09-1.89s-1.15-.94-1.89-1c-2-.14-4.06-.26-5.9.91s-3.38.37-5-.28c-1.09-.45-1-1.38.06-1.82a7.29,7.29,0,0,1,3.56-.93,29.7,29.7,0,0,0,10.66-.47c8.61-1.75,17.35-1,26-1.56,3.28-.2,6.29-.11,9,2.27,1.37,1.2,3.52.59,5.19.16a17.06,17.06,0,0,0,3.89-1,8.47,8.47,0,0,1,3.47-1.08A161.44,161.44,0,0,0,95,26.61,4.59,4.59,0,0,1,97.21,26.79Z" transform="translate(-8.5 -8.39)"/><path class="c" d="M42.9,80a1.39,1.39,0,0,0,1.51,1.25A2.18,2.18,0,0,0,46.2,80a1.32,1.32,0,0,0-.58-1.86c-2-1.12-3.26-2.88-4.78-4.45a2.18,2.18,0,0,1-.41-.54q-1,1.29-1.9,2.61a2.22,2.22,0,0,1,.77.23A5.81,5.81,0,0,1,42.9,80Z" transform="translate(-8.5 -8.39)"/><path class="d" d="M85.3,36.45a16.59,16.59,0,0,1,9,2.6,13.92,13.92,0,0,0,7.61,1.56,32.15,32.15,0,0,1,3.33.48c1,.05,2.16-.21,2.21-1.32s-1.19-.94-2-1c-4.84-.31-5.32-.82-5.13-5.71.06-1.59-.82-2-2.16-1.81a14.08,14.08,0,0,0-3,.52c-3,1.08-3-1.63-4-3.12q-5.14,2.86-10,6.08a2.26,2.26,0,0,1,1.11.66A4.09,4.09,0,0,0,85.3,36.45Z" transform="translate(-8.5 -8.39)"/><path class="e" d="M143.44,39.18c4.27-.15,2.87-2.84,2.13-4.72.2-2.11-.35-3.35-2.15-3.48-2.39-.17-4.54,1.59-4.58,3.56A4.55,4.55,0,0,0,143.44,39.18Z" transform="translate(-8.5 -8.39)"/><path class="f" d="M141.51,41.09a.67.67,0,0,0-.71.63c0,.32.07.66.44.56s.54-.39.72-.53C142.09,41.21,141.83,41.08,141.51,41.09Z" transform="translate(-8.5 -8.39)"/><path class="g" d="M313.58,237.71c-2.59-5.93-3-11.78,1.36-17.08,2.42-2.94.53-5.29-.43-7.88-.88-2.37-2.11-4.65-1.8-7.35.24-2-1.38-3.1-2.6-4.24a25.3,25.3,0,0,0-3.85-3.14c-2.17-1.35-2.29-5.21-.84-8.32.77-1.65,1.66-3.52,1.28-5.33-.44-2.09-3.42-3.52-5.69-2.85-2.63.77-4.33-.06-6-2.11-3.38-4.1-5.26-3.59-9.17-1-3.46,2.29-6.66,3-10.51,1.4a6.78,6.78,0,0,0-4.91.12c-4.17,1.53-7.45,1.23-9.22-3-1-2.39-3.32-3.88-5.33-5.44-4.38-3.4-6.6-8.22-8.6-13.1-1-2.44.8-4.84,1.46-7.18s1.23-4.06-1-5.71c-1-.76-1-1.71-.31-3q3.45-5.84,7.3-11.41A10,10,0,0,1,260,127c2.71-.84,4-2.65,3.71-5.31-.39-3.12,1.16-4.6,3.6-6a29.24,29.24,0,0,0,5.14-4.37,3.65,3.65,0,0,1,4.29-.72,7.25,7.25,0,0,0,6.65-.1c7-3.44,14.36-4.36,22-3.72,1.84.15,1.93,1.14,1.46,2.61-1.27,4-.55,6.9,2,7.5a50.89,50.89,0,0,0,7.19,1.21c2.75.24,5.7,2.24,7.59,4.73a159.76,159.76,0,0,0-6.42-17.51c-.48.64-1.58.81-2.27,1-1.16-.09-2.24-.21-2.31-1.27s1-.93,1.74-1.08a1.91,1.91,0,0,1,.53,0,7.16,7.16,0,0,0,1.55-.37q-1.42-3.17-3-6.26a5,5,0,0,1-.88-.35c-3.22-1.07-5.73-3.18-8.22-5.36a3.55,3.55,0,0,0-4.75-.26,4.18,4.18,0,0,1-2.16.71c-3.69,0-6.6,1.27-8.37,4.71a4.45,4.45,0,0,1-2.29,1.86c-1.6.74-3,1.87-2.52,4,.37,1.85-.72,2.54-2.26,3.17-3.36,1.39-6.79,2.56-10.37,1.47-1.7-.52-3.65-1-4.77-2.81a3.91,3.91,0,0,1-.17-4.36,5.37,5.37,0,0,0,.67-4.25c-.6-2.4.25-3.29,2.73-3.25,1.49,0,3,0,4.48,0v0c1.49,0,3-.1,4.47,0a3.06,3.06,0,0,0,3.37-2.56c.49-1.72.7-3.6-1.19-4.82-.7-.45-1.45-.81-2.18-1.21-.93-.51-2.43-1.1-2.21-2,.27-1.11,1.7-1.78,3-1.76a8.68,8.68,0,0,0,3.53-1.16,1.12,1.12,0,0,0,.82-1.24,1.18,1.18,0,0,0-1.13-1,7.54,7.54,0,0,0-5.15,1c-1.19.73-1.86.19-1.82-.86.06-1.79,0-3.65,1.68-5.06,2.13-1.81,1.66-3.56-1-4.51a4.77,4.77,0,0,1-3-4.08c-.3-1.84,1.39-2.09,2.64-2.57a17.21,17.21,0,0,1,2.52-.88,2.31,2.31,0,0,1,2.43,1.16,2,2,0,0,1,.15,2.47,2.47,2.47,0,0,0,.54,3.64c1.67,1.44,2.41,3.83,4.76,4.61a1.5,1.5,0,0,1,.84,1.8c-.09.58-.27,1.27.43,1.58s1.37-.13,1.87-.68a11.09,11.09,0,0,1,5.84-3.83,6.39,6.39,0,0,1,.81-.14A161.78,161.78,0,0,0,252.44,31.4a3.63,3.63,0,0,1-1.21,2.13c-2.89,3.2-5.76,6-10.76,5.29-2.95-.4-5.83.91-8.33,2.73-4,2.9-8.83,3.42-13.36,4.73-3,.86-5.42,2.06-6.55,5.16a8.59,8.59,0,0,1-1.29,2.13c-2.27,3-8.72,2.39-11.41-1.1-3-3.88-3-8.16-1.45-12.54.55-1.57,2.16-1.77,3.59-1.91,1.82-.18,2.51-.67,1.15-2.4a9.08,9.08,0,0,1-2.35-6c0-2.06-3-4.7-5.1-4.78-1.91-.08-3.82,0-5.73,0v0c-2.15,0-4.3.08-6.44,0-1.25-.07-1.9-.62-.94-2a5.69,5.69,0,0,1,5.87-2.5,42,42,0,0,0,4.44.37A1.26,1.26,0,0,0,194,19.57c.1-.8-.42-1.17-1.06-1.47a6.45,6.45,0,0,0-4.39-.12c-5.93,1.44-12.17,1.7-17.71,4.7-3,1.64-6.2,3-9.24,4.61-1.48.78-1.26,1.82.16,2.46A9.54,9.54,0,0,0,165.61,31c3.35-.12,5.4,2.17,7.88,3.69a1.45,1.45,0,0,1,.62,1.86c-.49,1.56.24,2.3,1.76,2.64a12.31,12.31,0,0,1,3,1.15c1.13.58,2.72,1.14,2,2.82-.64,1.53-2.18,1.86-3.77,1.72-.17,0-.34-.12-.51-.15-.77-.15-1.69-1.06-2.25-.19-.44.69.65,1.25,1.05,1.88s1.13,1.27.4,2-1.88,2-3.21,1.48a3.34,3.34,0,0,0-3.73.73c-2.29,1.83-4.43,1.1-6.51-.49S158.08,47,155.15,48a1.16,1.16,0,0,1-1.62-1,1.42,1.42,0,0,1,.86-1.75,4.14,4.14,0,0,1,2.44-.33c2.75.47,4.75-1.64,7.25-2.13.9-.18.61-1.51.15-2.35-1.48-2.73-8.17-4.77-11-3.48-1.49.68-1.36,2.16-1.91,3.27a4.61,4.61,0,0,1-4.63,2.93,24.18,24.18,0,0,0-3.72.37c-.46.06-1,.23-1.07.8s.46.89.94,1.12c1.33.64,2.86.9,3.93,2,.32.34.81.61.56,1.18a1.08,1.08,0,0,1-1.18.65c-2.23-.44-4.36.08-6.53.49-1.3.24-1.62-.69-1.32-1.68.62-2.05-.37-1.72-1.54-1.11-2.47,1.3-4.8,3.19-7.58,3.44-3.36.3-6.09,1.77-8.93,3.25C118,54.9,116,56.43,116.09,59s2.58,3.28,4.42,4.22c2.94,1.49,5.87,3.13,9.46,2.64,1.33-.18,1.73.82,1.08,2.05a19,19,0,0,0-1.39,2.69c-.88,2.61-.09,4.14,2.37,4.84,1.36.39,3.51-1.4,3.71-3.39.33-3.33,1.75-5,5.34-5.41,2.43-.26,3.37-2.85,3.36-5.09,0-4.49,3.35-7,5.74-9.87,1.87-2.24,10.56.58,11.85,3.38a3.29,3.29,0,0,1-.3,2.58c-.25.72-1.39,1.45-.45,2.16a2.57,2.57,0,0,0,3.16-.27,15.16,15.16,0,0,0,2.85-2.41c1.61-2,2.74-1,3.79.44a3.74,3.74,0,0,1,.78,3.69c-1.16,3.07-.6,4.33,2.64,5.53a6.44,6.44,0,0,1,2.91,1.67c1.29,1.62,2.56,3.19.3,5.34-1.8,1.71-1.24,4.57.68,6.18.32.27.76.44,1,.77.6.9,1.93,1.62,1.35,2.89s-1.88.39-2.86.38c-2.21,0-4.42,0-6.62,0-.69,0-1.53.06-1.82-.8s.4-1.18.9-1.58c1.25-1,2.6-1.88,3.75-3,.88-.84,1.54-2.15.63-3.2-1.06-1.22-2.09,0-2.88.69a4.32,4.32,0,0,1-3.59,1.17c-2.83-.28-5.66-.16-8.52-.67-2.56-.45-5,1.28-7.25,2.71a1.07,1.07,0,0,0-.19,1.47c.33.59.87.48,1.42.41,1.36-.16,2.49-1.25,3.95-1,.79.15,1.79.41.92,1.44s-2.07,2-1,3.18A4.45,4.45,0,0,0,162.09,86a31.72,31.72,0,0,1,3.16-.58c.46-.06,1.07.06,1.14.62a1.46,1.46,0,0,1-.5,1c-2.29,2.11-4.86,3.36-8.09,2.5a5.27,5.27,0,0,0-3.16.33,6.68,6.68,0,0,1-5.54-.2c-2.18-1.12-3.61.53-5.08,1.64C139.26,95,134,98,130,102.6c-.51.6-1.28.48-2,.4a2,2,0,0,0-2.23,2.92c1.28,3.1.46,4.4-2.47,5.85a108.68,108.68,0,0,0-10.2,6.17,3,3,0,0,0-1.37,2.61c0,3.28.06,6.56.11,9.84,0,1,.47,2.17-1,2.51a2.38,2.38,0,0,1-2.9-1.79,16,16,0,0,1-.87-5.63c0-1.7-.72-2.21-2.49-2.68a37.51,37.51,0,0,0-9-.93c-1.08,0-2,.28-2.2,1.38-.55,3.17-3.24,2.39-4.31,1.51-2.14-1.75-4-1.64-6.22-.75-2.91,1.15-6.66,1.75-7.17,5.33-.63,4.45-4.9,7.71-3.89,12.45.64,3,.4,7,4.32,8,3.76,1,7.57.81,10.59-2.35,1.81-1.9,3.34-4.37,6.6-3.78.52.09,1.12-.05,1.42.54s-.14,1-.48,1.4c-1.37,1.72-2.71,3.47-4.08,5.19a2.94,2.94,0,0,0-.36,3.5,2.82,2.82,0,0,0,3.29,1.58c.75-.19,1.5-.4,2.26-.52,3.63-.59,5.91,1.35,5.39,4.84a15.65,15.65,0,0,0,2.06,10c.87,1.6,2.15,1.86,3.3.57,1.85-2.07,3.73-2,5.84-.6a2.33,2.33,0,0,0,3.47-.31c2.42-2.6,6.28-2.74,8.9-5.08a1.1,1.1,0,0,1,1.56.44c.55,1.84,1.44,1.36,2.71.75,2.31-1.09,4.35-.71,5.85,1.58a3.58,3.58,0,0,0,3.68,1.65c5.07-.55,9.69,1,14.08,3.32a3.81,3.81,0,0,1,1.44,1.26c2.55,4.24,6.71,5.48,11.18,6.62,3.77,1,6.86,2.92,8,7.4.94,3.61,4.49,5.71,7.77,6.8,2.6.86,5.17,1.92,7.74,2.84,1.81.65,3.67.52,5.48,1.28,2.69,1.14,5,2.85,7.68,4,1.23.56,2.55.87,3.76,1.55,3.13,1.76,3.07,1.89,1.83,5.32A28.1,28.1,0,0,1,201.1,219c-2.5,2.76-4,5.47-2.86,9.56,1.13,3.89-1.15,7.33-2.95,10.76-1.92,3.67-5.16,4.86-8.79,5.95-4.58,1.37-6.77,4.74-6.76,9.48,0,.3.11.67,0,.88-3,4.68-4,10.64-9.09,14a6.22,6.22,0,0,1-4.14,1.22c-2.64-.22-3.35.94-2.38,3.38.6,1.49,1.8,3.1.32,4.63s-3.08,2.77-5.52,2a2.28,2.28,0,0,0-3,1.45,5.19,5.19,0,0,1-2.08,2.57,2,2,0,0,0-.46,3c1.49,2.3,1.38,4.41-.61,6.36a2.75,2.75,0,0,0-.12,4.12c3.23,3.77,3.17,4.33.84,8.54-.77,1.39-.58,3.29-1.28,4.91-.37.84.76,1.21,1.6,1.07,3.33-.57,4.31,3,6.82,3.93.56.21-.14.78-.74.87-4.68.67-8.62-1.26-12.47-3.53-.15-.09-.36-.21-.4-.35-.78-3.14-3.65-4.45-5.67-6.5-1.59-1.61-3.1-4.41-2.69-5.71,1.13-3.55-2.24-5-2.48-7.72-.12-1.31-1.06-2.68.78-3.74,1-.55.21-1.67-.22-2.4-2.68-4.57-3.32-9.57-2.94-14.7.14-1.89,1.5-3.66.91-5.7-.45-1.52-.72-3.14-1.22-4.58-1.23-3.51-.82-6.94-.31-10.42a26.18,26.18,0,0,0-.24-9.41,20.76,20.76,0,0,1-.32-4.8,5.63,5.63,0,0,0-3-5.46c-2.54-1.44-5-3-7.64-4.27-5.1-2.51-7-7.47-9.19-12.09a71.43,71.43,0,0,0-5.66-10,8.93,8.93,0,0,1-1.72-7.89,16.61,16.61,0,0,1,4.64-9.08,14.57,14.57,0,0,0,3.65-11.84,2.51,2.51,0,0,0-1-2,19.23,19.23,0,0,1-3.15-2.62c-1.33-1.47-2.48-1.12-3.3.28s-1.19,1.15-2.15.2a13,13,0,0,1-3.17-3.78c-.6-1.34-2-1.06-3.19-.88-1.4.22-2.11-.33-2-1.74.19-1.83-.79-2.76-2.33-3.34a63.44,63.44,0,0,1-16.91-8.95,2.74,2.74,0,0,0-3.19-.37c-3.45,2.07-6.64.67-9.64-.83-2.47-1.23-4.61-3.12-7-4.61a2.07,2.07,0,0,1-.8-3.07c2.08-2.51.2-4.25-.93-6-2.8-4.4-5.71-8.74-8.69-13-.9-1.29-.5-2.64-.66-4-.07-.59.07-1.21-.44-1.66-1.18-1.05-2.33-3.32-4-2s-1.11,3.71-.23,5.46c1,2,1.65,4.07,2.53,6.08.19.43.32,1-.19,1.27-.26.13-.77-.12-1.11-.3-1.7-.92-2.87-2.1-2.09-4.28a1.61,1.61,0,0,0-.14-1.38c-2.28-2.28-2.12-5.14-2.07-8a3.71,3.71,0,0,0-1.42-2.61c-5.62-5.58-4-12.43-3.34-19a15,15,0,0,1,6-10.19c3.68-2.93,2.66-5.63-1.08-7.72a5,5,0,0,1-.94-.54A161,161,0,1,0,314.61,239C314,238.88,313.81,238.23,313.58,237.71ZM266.82,74.31a6.47,6.47,0,0,0,.28-3.61,2.39,2.39,0,0,1,1.53-2.83c1.73-.75,3.56-1.38,5.25-.11,1.49,1.12.36,2.85.45,4.25a2.9,2.9,0,0,1-2.49,2.9,7.94,7.94,0,0,0-3.39,1,1,1,0,0,1-1.31-.12A1.25,1.25,0,0,1,266.82,74.31ZM115.17,150.73c-.48,0-1-.06-1-.73a.74.74,0,0,1,.86-.71c.58,0,1.1.29,1.1.93S115.56,150.67,115.17,150.73Zm4.88-5c-.56.44-1.05.12-1.64,0a19.29,19.29,0,0,1-6.41-3.27c-2.54-1.75-5.39-1.42-8.22-.73-.51.12-1.34.37-1.52-.43s.64-1,1.26-1.15c1.2-.31,2.41-.6,3.69-.91,2.27,1.1,5,.54,7.07,2.55a5.81,5.81,0,0,0,4.63,1.91,1.42,1.42,0,0,1,1.56,1A.93.93,0,0,1,120.05,145.78Zm12.06,3.85c-2.17-.45-3.94,1.57-6.17,1.07-.78-.18-2.28.59-2.18-.56s.57-2.82,2-3c2.16-.25,4.25-1.85,6.61-.25.87.59,2.75.23,2.59,1.75S133.17,149.44,132.11,149.63Zm6.49,1.11c-.42-.05-.93-.07-.86-.65a1,1,0,0,1,1-.9.7.7,0,0,1,.84.72C139.56,150.51,139.13,150.7,138.6,150.74Zm-93-13.21A3.09,3.09,0,0,1,43.13,135c-.08-.67.08-2.12,1-1.87a3.52,3.52,0,0,1,2.27,3.09C46.26,136.81,46.38,137.75,45.57,137.53Z" transform="translate(-8.5 -8.39)"/><path class="h" d="M331.22,161.5c-.45-4.21-.8-8.43-1.32-12.63a175.49,175.49,0,0,0-4.53-22.57,10.18,10.18,0,0,0-1.77-3.49,161.47,161.47,0,0,1-9,116.19,1,1,0,0,0,.25,0c.73,0,.79-.82,1-1.33a156.8,156.8,0,0,0,14.64-55.11,28.74,28.74,0,0,1,1.13-7.2V163.57A20,20,0,0,1,331.22,161.5Z" transform="translate(-8.5 -8.39)"/><path class="i" d="M81.21,34.73a2.62,2.62,0,0,0-2,.67A162.75,162.75,0,0,0,40.76,71.95c-.35.46-.54.75-.33,1.17A161.85,161.85,0,0,1,81.21,34.73Z" transform="translate(-8.5 -8.39)"/><path class="j" d="M250.6,29.37a192.81,192.81,0,0,0-30.31-13.54c-2.37-.82-4.73-1.65-7.16-1.44a160.06,160.06,0,0,1,39.31,17C252.44,30.72,251.91,30.09,250.6,29.37Z" transform="translate(-8.5 -8.39)"/><path class="k" d="M92,27.76c-.34.15-.84.74-.79.81l0,.08q1.87-1,3.78-2A12,12,0,0,0,92,27.76Z" transform="translate(-8.5 -8.39)"/><path class="l" d="M37.25,76.71c-.42.53-.38.83-.15,1.05.47-.68.95-1.36,1.43-2C37.84,75.67,37.63,76.22,37.25,76.71Z" transform="translate(-8.5 -8.39)"/><path class="m" d="M313.86,97.18c.41-.28.09-.61-.07-.92A159.43,159.43,0,0,0,298,71.2a1.48,1.48,0,0,0-1.46-.68,161.05,161.05,0,0,1,16.91,26.77A.62.62,0,0,0,313.86,97.18Z" transform="translate(-8.5 -8.39)"/><path class="n" d="M317.41,104.43c-.07-.88-.49-1-1-.89.26.58.52,1.17.77,1.76A1.23,1.23,0,0,0,317.41,104.43Z" transform="translate(-8.5 -8.39)"/><g class="o"><path class="p" d="M311.73,152c6.83,4.08,13,1.29,19.71-1,10.88-3.73,14.44-9.37,9.71-20.54-2.88-6.79-3.82-14.42-5.52-21.7a8.55,8.55,0,0,1,.38-2.9c.85.78,2.09,1.39,2.5,2.36,4.35,10.19,7.47,21.09,13.12,30.49,7.26,12.08,9.85,23.65,3.47,36.57,0,.06-.07.14,0,.18,8.25,15.4-9.17,18.6-14.22,27-7.76,13-21.72,21.47-35.12,29.36-6.24,3.67-4.43,9.11-1.65,14.07,5.92,10.59,14.83,19.37,18.86,31.1.46,1.34,1.55,3-.71,4a9.6,9.6,0,0,0,0-3c-4.64-13.72-15.42-23.77-21.85-36.43l-.12.05-.14-.76-.17-.68.16-.76.16-5.41,0,0c1.15-.55,1.19-1.08,0-1.6l-2.38.4-2.27,1-2,.07h-3l-1.48.25-2-.15-1.11.17-8.29,3.52-6.28.47-.9-.62a.81.81,0,0,0-.29-.11c-1.28-1.72-3.07-1.36-4.42-.53s-2.15,2.3-3.2,3.49l3.34,2.09,1,.47c7.77,7.16,15.63,14.23,23.27,21.53,5.18,5,10.7,9.33,17.29,12.23a.79.79,0,0,0,.29.1c4.21,3.34,9.29,3.77,14.35,4.27-5.66,3.19-10.35-.28-15-2.5-11.82-5.63-20.78-15.22-29.38-24.44C265.24,240.66,250.84,242,236,246c-23.78,6.52-47.72,5.36-71.78,3.38-1.35-.11-2.59-1.45-3.88-2.22,7.35,3,15.22,1.22,22.77,2.48a9.52,9.52,0,0,0,2.4-.21l-.81-3.92,1-2,2.08-.11c2,.65,4.36.39,4.88,3.71.31,2,2.91,1.69,4.82,1.2s.36-1.48.17-2c-.68-1.75.66-1.69,1.55-1.83,6.28-1,12.57-1.89,18.85-2.86a12.17,12.17,0,0,0,2.13-.74,8.28,8.28,0,0,0-1-1.59c-3.24-3.13-6.41.84-9.75.19-1.61-.31-3.49.77-5.25,1.22l5.57-2.54,5-1.41,4.44-1.27.41-.54,2.46-.27,3.4-.66c1,.27,2,.72,2.33-.87l.74-.31,11.06-4.15c8.81-3.31,18.06-5.83,27.27-4.65,4.32.55,7.54,1.66,10.91-1.64,1.24-1.21,3.1-1.77,4.42-2.93,4.12-3.62,7.44,2.13,11.27.86,15.51-5.14,27.22-16,39.39-26.2.38-.31.49-.94.73-1.42-.29,0-.63-.23-.86-.13-2.56,1.11-5,2.68-7.66,3.33-11.58,2.83-18.86,13.22-29.85,16.83-3.79,1.24-8.91,1-11.12-2.83-2.45-4.28.59-7.86,4.5-9.94,11.38-6.05,25.08-5.81,36-12.84,9.71-6.23,19.55-12.5,25.72-22.8l0-.07a14.11,14.11,0,0,0,.83-21.7.84.84,0,0,0-.07-.33l-1.82-3.54a.67.67,0,0,0-.11-.31L347,133.33l-.17-.66c-1.17-3.42-2.25-6.88-3.58-10.23-.44-1.1-1.54-1.94-2.35-2.9.12,1.58.12,3.18.38,4.74,1.08,6.6,4.28,13.68,2.87,19.67-2.05,8.66-25.45,13.77-32.7,8.35Zm41.66,29.25-.17,3,3.42-2.49c-.05-.62.13-1.49-.2-1.81a8,8,0,0,0-2.26-1.08Z" transform="translate(-8.5 -8.39)"/><path class="p" d="M281.72,164.27c5.54-10.39,3.59-24.21,14.42-32.12,4.15-3,6.91-.2,8.55,3.42,2.45,5.42,3.12,11.61,7,16.41l-.28.31c-1.74,1.18-2.94-4.64-4.55-.61-3.12,7.82-9.49,10.87-16.94,12.69-.78.19-1.56.4-2.34.6.34-3-1.94-6,.36-9,.52-.68-.09-2.23-.18-3.38-.5.92-1,1.85-1.49,2.76C284.62,158.24,286.13,162.78,281.72,164.27Z" transform="translate(-8.5 -8.39)"/><path class="q" d="M281.72,164.27c4.41-1.49,2.9-6,4.59-8.94.53-.9,1-1.84,1.49-2.76.09,1.15.7,2.7.18,3.38-2.3,3,0,6-.36,9,.78-.2,1.56-.41,2.34-.6,7.45-1.82,13.81-4.87,16.94-12.69,1.61-4,2.81,1.79,4.55.61,7.25,5.43,30.65.31,32.7-8.35,1.42-6-1.79-13.07-2.87-19.67-.25-1.56-.26-3.16-.38-4.74.8,1,1.91,1.8,2.35,2.9,1.33,3.36,2.4,6.81,3.58,10.23l-1.38-.4a10.92,10.92,0,0,0,0,2.41,17,17,0,0,1-14.93,21c-5.49.57-12.16-1.55-16.35.9-6.33,3.69-13.86,4.24-19.53,8.57-5.17,4-12.86-2.45-16.84,4.71l-1.47.6-10.08,5.33-.32.08-1.17.75L264,177l-.85.69-.31.08-3.18,1.05,2.07-2.1a.68.68,0,0,1,.29-.17l.86-.61a.67.67,0,0,1,.32-.14l7.81-4.35,3-1.43,1.24-.58.33-.16,3.42-2,1.18-1.16.71-.8Z" transform="translate(-8.5 -8.39)"/><path class="q" d="M184.7,245.54l.81,3.92a9.52,9.52,0,0,1-2.4.21c-7.54-1.25-15.42.48-22.77-2.48l-.79-.82c-1.08-2.48-.61-4.35,1.78-5.92a62.38,62.38,0,0,0,5.57-4.59L168,235l.84-.66a.85.85,0,0,1,.28-.16l1.22-1a.84.84,0,0,1,.29-.17l1.3-.93a1.05,1.05,0,0,1,.29-.15l1.08-.77.08-.06,1.08-.74.82-.41.88-.59,1.05-.56.88-.58,1.78-1,.92-.53a.71.71,0,0,1,.27-.18l.89-.58a.66.66,0,0,1,.29-.15L199,214.59l.33-.22.82-.56,1.47-1,2.41-1.58.63-.38,12.05-7-.11.9-.33.08-1.24,1h0l-1.17.74-.31.09-1.25,1a1.75,1.75,0,0,0-.32.09l-1.24,1-.67.15-2.39,1.82-.32.09-5,3.43,0,0L200,216.14a1.82,1.82,0,0,0-.34.08l-4.65,3a2,2,0,0,0-.33.09l-1.6,1a1.65,1.65,0,0,0-.34.09l-3.44,2.32h0l-3.93,3a1.77,1.77,0,0,0-.33.09l-1.59,1.06a1.45,1.45,0,0,0-.35.09l-1.17.73-1.09.47-.85.66-.33.09L178,230a1.75,1.75,0,0,0-.32.1l-1.16.73-.79.4c-3.76,2.78-7.43,5.67-11.3,8.28-2.23,1.5-4.25,3.07-3.1,5.91.36.89,2.41,1.1,3.69,1.62l1.15.07c4.7.25,9.4.62,14.11.67C181.95,247.82,185,249.63,184.7,245.54Z" transform="translate(-8.5 -8.39)"/><path class="p" d="M261.75,176.75l-2.07,2.1-.29.1-7.82,4.1-3.47,2.31-.71.55-.88.56-1.1.77.07.14-.89.3-3.05,1.84a2.25,2.25,0,0,1-.32.15l-3.42,2-.35.49-13.89,7.22-.28-.27C235.77,191.05,247.84,182.32,261.75,176.75Z" transform="translate(-8.5 -8.39)"/><path class="p" d="M199,214.59l-16.77,11.18Z" transform="translate(-8.5 -8.39)"/><path class="p" d="M216.73,203.82l-12.05,7a64.86,64.86,0,0,1,18.6-11.8l.28.27-3.34,2.25-3.14,2Z" transform="translate(-8.5 -8.39)"/><path class="p" d="M166.89,235.88a62.39,62.39,0,0,1-5.57,4.59c-2.39,1.57-2.86,3.44-1.78,5.92-.49-1.13-1.67-2.56-1.34-3.35C159.8,239.22,163.56,237.76,166.89,235.88Z" transform="translate(-8.5 -8.39)"/><path class="p" d="M271,171.48l-7.81,4.35C265.37,173.57,267.78,171.76,271,171.48Z" transform="translate(-8.5 -8.39)"/><path class="p" d="M279,167.35l-3.42,2Z" transform="translate(-8.5 -8.39)"/><path class="p" d="M204,211.24l-2.41,1.58C202,211.68,202.56,210.72,204,211.24Z" transform="translate(-8.5 -8.39)"/><path class="p" d="M171.94,232.08l-1.3.93Z" transform="translate(-8.5 -8.39)"/><path class="p" d="M170.36,233.18l-1.22,1Z" transform="translate(-8.5 -8.39)"/><path class="p" d="M174.46,230.36l-1.08.74Z" transform="translate(-8.5 -8.39)"/><path class="p" d="M173.31,231.16l-1.08.77Z" transform="translate(-8.5 -8.39)"/><path class="p" d="M275.24,169.47,274,170Z" transform="translate(-8.5 -8.39)"/><path class="p" d="M176.16,229.36l-.88.59Z" transform="translate(-8.5 -8.39)"/><path class="p" d="M182,225.92l-.89.58Z" transform="translate(-8.5 -8.39)"/><path class="p" d="M262.91,176l-.86.61Z" transform="translate(-8.5 -8.39)"/><path class="p" d="M200.17,213.82l-.82.56Z" transform="translate(-8.5 -8.39)"/><path class="p" d="M168.86,234.38,168,235Z" transform="translate(-8.5 -8.39)"/><path class="p" d="M280.87,165.39l-.71.8Z" transform="translate(-8.5 -8.39)"/><path class="p" d="M180.79,226.68l-.92.53Z" transform="translate(-8.5 -8.39)"/><path class="p" d="M178.09,228.21l-.88.58Z" transform="translate(-8.5 -8.39)"/><path class="r" d="M241.22,189.66a2.32,2.32,0,0,0,.33-.15l2.76-1,1.18-1.12-.07-.14.83.13,1.2-.75.65-.11,3.16-2.21a1.49,1.49,0,0,1,.32-.07l1.27-1,.67-.11.85-.68.33-.06,8.17-4.53.31-.08L264,177l.77-.39,1.17-.75.32-.08,10.08-5.33,1.47-.6c6.91,6.5-1.66,4.71-3.45,6-7.94,5.8-4.66,15.47-7.91,23-2.71,6.28-4.65,13.28-10.38,16.23-6.44,3.32-13.69,5.48-19.47,9.93-2.55,2-8,1.31-7.52,6.69l-.46.38L222,234.71l-2.46.27-2.91.65-.69.06-6.25,2.14-21.93,5.59-2.08.11c-7.47-4-12.59,4.63-19.51,3.61l-1.15-.07c-3.64-3.92-.38-6.09,2.17-8.38,2.81-2.52,5.69-5,8.54-7.43l.79-.4,1.16-.73A1.69,1.69,0,0,1,178,230l1.6-1.07.33-.09.85-.66,1.09-.47,1.17-.73a1.4,1.4,0,0,1,.35-.08l1.59-1.06a1.69,1.69,0,0,1,.33-.09l3.93-3h0l3.44-2.32a1.59,1.59,0,0,1,.34-.09l1.6-1.05a1.89,1.89,0,0,1,.33-.09l4.65-3a1.75,1.75,0,0,1,.35-.08l2.35-1.84h0l5-3.43a1.93,1.93,0,0,1,.32-.09l2.39-1.82.67-.15,1.24-1a1.68,1.68,0,0,1,.32-.09l1.25-1,.31-.09,1.17-.74h0l1.24-1,.33-.08,1.22-1,.69-.19,1.26-1,.35-.1,17.31-10.33.35-.49Z" transform="translate(-8.5 -8.39)"/><path class="s" d="M229.09,231.77c-.43-5.38,5-4.72,7.52-6.69,5.78-4.45,13-6.61,19.47-9.93,5.73-3,7.67-9.95,10.38-16.23,3.25-7.54,0-17.22,7.91-23,1.8-1.31,10.36.48,3.45-6,4-7.16,11.66-.76,16.84-4.71,5.67-4.33,13.2-4.88,19.53-8.57,4.19-2.44,10.86-.32,16.35-.9a17,17,0,0,0,14.93-21,10.92,10.92,0,0,1,0-2.41l1.38.4.17.66,2.17,5.09a.66.66,0,0,1,.11.31l1.82,3.54a.83.83,0,0,1,.07.33c4.36,7.41,3.2,14.61-.83,21.7l0,.07c-.3,0-.72,0-.9.14-12,11.21-21.34,25.68-42.45,20.85-9.94-2.27-21.26,3.11-29,11.53-4.31,4.71-11,7.54-10.84,16.16.09,4.14-2.06,10.44-9.18,10-3.34-.18-7.07-1.41-10-.34C241.48,225.16,235.37,228.7,229.09,231.77Z" transform="translate(-8.5 -8.39)"/><path class="q" d="M229.09,231.77c6.28-3.08,12.39-6.61,18.92-9,2.88-1.06,6.61.16,10,.34,7.12.39,9.27-5.9,9.18-10-.18-8.62,6.53-11.45,10.84-16.16,7.7-8.42,19-13.81,29-11.53,21.11,4.83,30.48-9.64,42.45-20.85.18-.17.59-.1.9-.14-6.17,10.3-16,16.57-25.72,22.8-11,7-24.66,6.79-36,12.84-3.91,2.08-6.95,5.66-4.5,9.94,2.21,3.86,7.33,4.07,11.12,2.83,11-3.61,18.27-14,29.85-16.83,2.67-.65,5.1-2.22,7.66-3.33.22-.1.57.08.86.13-.24.48-.35,1.11-.73,1.42-12.17,10.18-23.88,21.06-39.39,26.2-3.83,1.27-7.14-4.48-11.27-.86-1.32,1.16-3.18,1.71-4.42,2.93-3.38,3.31-6.59,2.2-10.91,1.64-9.21-1.18-18.46,1.34-27.27,4.65l-11.06,4.15.17-.72Z" transform="translate(-8.5 -8.39)"/><path class="s" d="M271.42,238.12l6.28-.47c3.35,1.23,5.61-1.83,8.55-2.18-.37.72-1.23,1.89-1,2.11,3.73,4.12,10.69,2.79,13.79,8.11a6.23,6.23,0,0,0,1.48,1.29l.61-1.91,5.26,8.16c-5.15,3.26-.44,6,.74,8.53,3,6.51,10,10.23,12.37,17.26l-11.64-2.23a.8.8,0,0,1-.29-.1c-7.61-6.41-15.2-12.86-22.85-19.23-5.87-4.89-11.81-9.69-17.72-14.53l-1-.47c-.34-1.17-1.26-2.55-.93-3.48.91-2.53,3.43-1.07,5.21-1.58a.81.81,0,0,1,.29.11Z" transform="translate(-8.5 -8.39)"/><path class="q" d="M187.77,243.41l21.93-5.59a2.52,2.52,0,0,0,0,.38l-5.57,2.54c1.76-.45,3.64-1.53,5.25-1.22,3.34.65,6.51-3.32,9.75-.19a8.28,8.28,0,0,1,1,1.59,12.17,12.17,0,0,1-2.13.74c-6.28,1-12.57,1.88-18.85,2.86-.88.14-2.22.09-1.55,1.83.19.48,1.78,1.45-.17,2s-4.51.77-4.82-1.2C192.13,243.8,189.8,244.07,187.77,243.41Z" transform="translate(-8.5 -8.39)"/><path class="r" d="M301.1,245.07l-.61,1.91a6.23,6.23,0,0,1-1.48-1.29c-3.11-5.32-10.06-4-13.79-8.11-.19-.21.67-1.38,1-2.11l2.86-1.37,1.48-.25h3l2-.07,2.27-1,2.38-.4,0,1.6,0,0-.43-.06-.43.76v4.64l.53.82.17.68-.47.46.61.31.12-.05-.06,1.61.68,1.17Z" transform="translate(-8.5 -8.39)"/><path class="q" d="M267,242.92c5.91,4.84,11.85,9.64,17.72,14.53,7.65,6.37,15.23,12.82,22.85,19.23-6.59-2.91-12.11-7.28-17.29-12.23C282.62,257.15,274.76,250.08,267,242.92Z" transform="translate(-8.5 -8.39)"/><path class="q" d="M300.28,243.22l.06-1.61c6.43,12.66,17.21,22.71,21.85,36.43a9.6,9.6,0,0,1,0,3l0,0c-5.06-.5-10.14-.93-14.35-4.27L319.47,279l1.49-.36-1.87-5.8-.68-.83-1.28-2.61-.74-1.17-1.15-1.94L313.73,264v0l-.7-.8a2,2,0,0,0-.08-.33l-.71-.81-.43-.75-1.09-1.2a1.73,1.73,0,0,0-.08-.33l-.71-.81-.47-1.09-.7-.82a2.15,2.15,0,0,0-.08-.32l-1-1.24-.46-1.12-.72-.79q0-.17-.07-.33l-5.26-8.16-.14-.68Z" transform="translate(-8.5 -8.39)"/><path class="s" d="M166.18,247.13c6.91,1,12-7.62,19.51-3.61l-1,2c.28,4.09-2.75,2.28-4.41,2.26C175.58,247.75,170.88,247.38,166.18,247.13Z" transform="translate(-8.5 -8.39)"/><path class="q" d="M350.34,164.3c4-7.09,5.19-14.29.83-21.7A14.11,14.11,0,0,1,350.34,164.3Z" transform="translate(-8.5 -8.39)"/><path class="q" d="M270.23,237.39c-1.77.51-4.3-.95-5.21,1.58-.33.93.58,2.3.93,3.48l-3.34-2.09c1-1.19,1.91-2.69,3.2-3.49S268.94,235.67,270.23,237.39Z" transform="translate(-8.5 -8.39)"/><path class="q" d="M289.11,234.1l-2.86,1.37c-2.95.35-5.2,3.41-8.55,2.18l8.29-3.53,1.11-.17Z" transform="translate(-8.5 -8.39)"/><path class="s" d="M356.64,181.79l-3.42,2.49.17-3C354.61,180.63,356,179.23,356.64,181.79Z" transform="translate(-8.5 -8.39)"/><path class="s" d="M228.63,232.16l-.17.72-.74.31-2.33.86-3.4.66Z" transform="translate(-8.5 -8.39)"/><path class="s" d="M209.7,238.21a2.52,2.52,0,0,1,0-.38l6.25-2.14-1.24,1.11Z" transform="translate(-8.5 -8.39)"/><path class="q" d="M356.64,181.79c-.68-2.56-2-1.16-3.25-.56l.79-2.33a8,8,0,0,1,2.26,1.08C356.78,180.3,356.59,181.17,356.64,181.79Z" transform="translate(-8.5 -8.39)"/><path class="q" d="M299.8,234l.43.06q-.08,2.7-.16,5.41l-.69-.06q0-2.32,0-4.64Z" transform="translate(-8.5 -8.39)"/><path class="q" d="M349.17,138.42,347,133.33Z" transform="translate(-8.5 -8.39)"/><path class="q" d="M214.7,236.8l1.24-1.11.69-.05,2.51-.1Z" transform="translate(-8.5 -8.39)"/><path class="q" d="M351.1,142.27l-1.82-3.54Z" transform="translate(-8.5 -8.39)"/><path class="q" d="M293.62,233.86h0Z" transform="translate(-8.5 -8.39)"/><path class="q" d="M225.4,234l2.33-.86C227.43,234.76,226.38,234.32,225.4,234Z" transform="translate(-8.5 -8.39)"/><path class="s" d="M219.13,235.53l-2.51.1,2.91-.65Z" transform="translate(-8.5 -8.39)"/><path class="q" d="M297.86,232.82l-2.27,1Z" transform="translate(-8.5 -8.39)"/><path class="q" d="M300.25,234l0-1.6C301.44,232.94,301.4,233.48,300.25,234Z" transform="translate(-8.5 -8.39)"/><path class="s" d="M299.38,239.4l.69.06-.17.76Z" transform="translate(-8.5 -8.39)"/><path class="s" d="M300.22,241.67l-.61-.31.47-.46Z" transform="translate(-8.5 -8.39)"/><path class="q" d="M271.42,238.12l-.9-.62Z" transform="translate(-8.5 -8.39)"/><path class="s" d="M276.35,170.49l-10.08,5.33Z" transform="translate(-8.5 -8.39)"/><path class="s" d="M262.87,177.8l-8.17,4.53,4.7-3.37.29-.1Z" transform="translate(-8.5 -8.39)"/><path class="s" d="M266,175.89l-1.17.75Z" transform="translate(-8.5 -8.39)"/><path class="s" d="M264,177l-.85.69Z" transform="translate(-8.5 -8.39)"/><path class="s" d="M175.75,231.25c-2.85,2.47-5.73,4.91-8.54,7.43-2.55,2.29-5.81,4.46-2.17,8.38-1.28-.52-3.33-.73-3.69-1.62-1.14-2.84.87-4.4,3.1-5.91C168.32,236.92,172,234,175.75,231.25Z" transform="translate(-8.5 -8.39)"/><path class="s" d="M207.35,210.86l-5,3.43Z" transform="translate(-8.5 -8.39)"/><path class="s" d="M199.62,216.23l-4.65,3Z" transform="translate(-8.5 -8.39)"/><path class="s" d="M189.26,222.8l-3.93,3Z" transform="translate(-8.5 -8.39)"/><path class="s" d="M192.7,220.47l-3.44,2.32Z" transform="translate(-8.5 -8.39)"/><path class="s" d="M210.07,209l-2.39,1.82Z" transform="translate(-8.5 -8.39)"/><path class="s" d="M202.32,214.31,200,216.14Z" transform="translate(-8.5 -8.39)"/><path class="s" d="M194.64,219.33l-1.6,1.05Z" transform="translate(-8.5 -8.39)"/><path class="s" d="M217.83,203.73l-1.22,1,.11-.9.35-.2Z" transform="translate(-8.5 -8.39)"/><path class="s" d="M179.63,229,178,230Z" transform="translate(-8.5 -8.39)"/><path class="s" d="M185,225.86l-1.59,1.06Z" transform="translate(-8.5 -8.39)"/><path class="s" d="M216.29,204.79l-1.24,1Z" transform="translate(-8.5 -8.39)"/><path class="s" d="M212,207.78l-1.24,1Z" transform="translate(-8.5 -8.39)"/><path class="s" d="M213.55,206.66l-1.25,1Z" transform="translate(-8.5 -8.39)"/><path class="s" d="M183.06,227l-1.17.73Z" transform="translate(-8.5 -8.39)"/><path class="s" d="M215,205.84l-1.17.74Z" transform="translate(-8.5 -8.39)"/><path class="s" d="M177.7,230.12l-1.16.73Z" transform="translate(-8.5 -8.39)"/><path class="s" d="M180.8,228.21l-.85.66Z" transform="translate(-8.5 -8.39)"/><path class="s" d="M237.45,192.11l-17.31,10.33.08-.87,3.34-2.25Z" transform="translate(-8.5 -8.39)"/><path class="q" d="M259.39,179l-4.7,3.37-.33.06-.85.68-.67.11-1.13,0-.15-.16Z" transform="translate(-8.5 -8.39)"/><path class="q" d="M251.57,184.21a1.47,1.47,0,0,0-.32.07l-3,1.22-.14-.15,3.47-2.31.14.16Z" transform="translate(-8.5 -8.39)"/><path class="q" d="M241.22,189.66l-3.42,2Z" transform="translate(-8.5 -8.39)"/><path class="q" d="M244.3,188.48l-2.76,1,3.05-1.84Z" transform="translate(-8.5 -8.39)"/><path class="s" d="M244.3,188.48l.29-.82.89-.3Z" transform="translate(-8.5 -8.39)"/><path class="s" d="M247.45,186.61l-1.2.75.27-.9.88-.55Z" transform="translate(-8.5 -8.39)"/><path class="q" d="M247.45,186.61l-.06-.7.71-.55.14.15-.15,1Z" transform="translate(-8.5 -8.39)"/><path class="q" d="M246.51,186.46l-.27.9-.83-.13Z" transform="translate(-8.5 -8.39)"/><path class="q" d="M220.22,201.58l-.08.87-.35.1-1.26,1-.69.19-.75-.1Z" transform="translate(-8.5 -8.39)"/><path class="s" d="M248.09,186.5l.15-1,3-1.22Z" transform="translate(-8.5 -8.39)"/><path class="s" d="M251.57,184.21l.14-1,1.13,0Z" transform="translate(-8.5 -8.39)"/><path class="s" d="M218.52,203.54l1.26-1Z" transform="translate(-8.5 -8.39)"/><path class="s" d="M253.51,183.07l.85-.68Z" transform="translate(-8.5 -8.39)"/><path class="r" d="M310.62,259.76a1.66,1.66,0,0,1,.08.33l1.09,1.2.43.75.71.81a1.88,1.88,0,0,1,.08.33l.7.8v0l1.51,2.31,1.15,1.94.74,1.17,1.28,2.61.68.83,1.87,5.8-1.49.36c-2.38-7-9.39-10.74-12.37-17.26-1.18-2.57-5.89-5.27-.74-8.53q0,.16.07.33l.72.79.46,1.12,1,1.24a2.08,2.08,0,0,1,.08.32l.7.82.47,1.09Z" transform="translate(-8.5 -8.39)"/><path class="s" d="M300.28,243.22l.68,1.17Z" transform="translate(-8.5 -8.39)"/><path class="s" d="M299.8,234l-.43.76Z" transform="translate(-8.5 -8.39)"/><path class="s" d="M315.24,266.31,313.72,264Z" transform="translate(-8.5 -8.39)"/><path class="s" d="M308.66,256.71l-1-1.24Z" transform="translate(-8.5 -8.39)"/><path class="s" d="M311.79,261.29l-1.09-1.2Z" transform="translate(-8.5 -8.39)"/><path class="s" d="M317.13,269.43l-.74-1.17Z" transform="translate(-8.5 -8.39)"/><path class="s" d="M307.16,254.36l-.72-.79Z" transform="translate(-8.5 -8.39)"/><path class="s" d="M309.45,257.86l-.7-.82Z" transform="translate(-8.5 -8.39)"/><path class="s" d="M310.62,259.76l-.71-.81Z" transform="translate(-8.5 -8.39)"/><path class="s" d="M312.93,262.84l-.71-.81Z" transform="translate(-8.5 -8.39)"/><path class="s" d="M313.71,264l-.7-.8Z" transform="translate(-8.5 -8.39)"/><path class="s" d="M319.09,272.86l-.68-.83Z" transform="translate(-8.5 -8.39)"/></g><path class="t" d="M615.62,136h-7.36V123.44h36c14.72,0,25,9.06,25,24.23,0,14.49-10,20.49-13.36,21.17v.23a9.22,9.22,0,0,1,4,4.08l7.81,15.51c1.25,2.38,3.17,2.6,5.66,2.6h1.47v12.57H667c-6,0-8.6-.91-11.21-6l-10.3-20.26c-1.7-3.17-3.4-3.74-7.58-3.74h-7.47v30H615.62Zm26.6,25.13c7.47,0,11.89-4.64,11.89-12.68S649.69,136,642.45,136h-12v25.13Z" transform="translate(-8.5 -8.39)"/><path class="t" d="M703.92,144.73c16.53,0,25.58,12.11,25.58,27.4,0,1.7-.34,5.32-.34,5.32H689.32c1.13,10.19,8.6,15.51,17.32,15.51,9.28,0,16.19-6.45,16.19-6.45l6,10a35.12,35.12,0,0,1-23.21,8.72c-19.13,0-31-13.81-31-30.23C674.6,157.18,686.6,144.73,703.92,144.73Zm10.87,22.75c-.23-6.91-5-11.66-10.87-11.66-7.36,0-12.57,4.42-14.15,11.66Z" transform="translate(-8.5 -8.39)"/><path class="t" d="M739.24,157.52h-7.13V146.09h7.13v-1.7c0-18.91,15.51-21.4,23.55-21.4a30.94,30.94,0,0,1,4.87.34v12.23a18.24,18.24,0,0,0-2.94-.23c-4.08,0-11.09,1-11.09,9.4v1.36H766v11.43H753.62v46.3H739.24Z" transform="translate(-8.5 -8.39)"/><path class="t" d="M773.88,160.8a2.22,2.22,0,0,0-2.49-2.49h-4.53V146.09h13.7c5.32,0,7.58,2.38,7.58,7.58v26.6c0,7,1.81,11.77,8.94,11.77,10.41,0,16.19-9.17,16.19-19.47V146.09h14.38v43.13a2.27,2.27,0,0,0,2.49,2.49h4.53v12.11H821.42c-5,0-7.58-2.38-7.58-6.45v-1.58c0-1.36.11-2.6.11-2.6h-.23c-2.72,6-10,12-19.92,12-12.34,0-19.92-6.23-19.92-22Z" transform="translate(-8.5 -8.39)"/><path class="t" d="M861.95,144.73c13.36,0,17.77,8.15,17.77,8.15h.23v-1.47c0-2.6,1.81-5.32,6.34-5.32h13.36v12.23h-4.42a2.21,2.21,0,0,0-2.49,2.26v39.73c0,19.81-15.4,27.28-30.45,27.28a46,46,0,0,1-20.49-5l4.42-11.32a37.27,37.27,0,0,0,16,3.85c8.72,0,16.3-3.74,16.3-14.15v-2.72c0-1.36.11-3.06.11-3.06h-.23c-3.4,4.87-8.38,7.47-16.08,7.47-16.53,0-25.92-13.36-25.92-29.21S845.31,144.73,861.95,144.73Zm16.87,28.87c0-13.13-6.57-16.64-14.38-16.64C855.72,157,851,163.29,851,173c0,10.08,5.09,17.55,14.38,17.55C872.25,190.57,878.82,186.61,878.82,173.59Z" transform="translate(-8.5 -8.39)"/><path class="t" d="M930.78,144.73c16.53,0,25.58,12.11,25.58,27.4,0,1.7-.34,5.32-.34,5.32H916.17c1.13,10.19,8.6,15.51,17.32,15.51,9.28,0,16.19-6.45,16.19-6.45l6,10a35.12,35.12,0,0,1-23.21,8.72c-19.13,0-31-13.81-31-30.23C901.46,157.18,913.46,144.73,930.78,144.73Zm10.87,22.75c-.23-6.91-5-11.66-10.87-11.66-7.36,0-12.57,4.42-14.15,11.66Z" transform="translate(-8.5 -8.39)"/><path class="q" d="M386.6,136h-7.36V123.44H414c14.49,0,24.91,7.47,24.91,20.72,0,8.94-4.87,14.72-9.74,17.21v.23c8.72,2.6,12.91,10.75,12.91,18.91,0,16.07-12.79,23.32-27.74,23.32h-20c-5.32,0-7.7-2.26-7.7-7.7Zm27.51,20.26c6.23,0,9.74-4.53,9.74-10.3s-3.4-10-10-10H401.43v20.26Zm-10.19,35h11.55c7.25,0,11.32-4.87,11.32-11.66S422.6,168,415.47,168h-14v20.72A2.26,2.26,0,0,0,403.92,191.25Z" transform="translate(-8.5 -8.39)"/><path class="q" d="M451.58,138.16a2.22,2.22,0,0,0-2.49-2.49h-4.53V123.44h13.7c5.32,0,7.7,2.38,7.7,7.7v58.07a2.27,2.27,0,0,0,2.49,2.49h4.42v12.11H459.28c-5.43,0-7.7-2.26-7.7-7.7Z" transform="translate(-8.5 -8.39)"/><path class="q" d="M480.45,160.8a2.22,2.22,0,0,0-2.49-2.49h-4.53V146.09h13.7c5.32,0,7.58,2.38,7.58,7.58v26.6c0,7,1.81,11.77,8.94,11.77,10.41,0,16.19-9.17,16.19-19.47V146.09h14.38v43.13a2.27,2.27,0,0,0,2.49,2.49h4.53v12.11H528c-5,0-7.58-2.38-7.58-6.45v-1.58c0-1.36.11-2.6.11-2.6h-.23c-2.72,6-10,12-19.92,12-12.34,0-19.92-6.23-19.92-22Z" transform="translate(-8.5 -8.39)"/><path class="q" d="M572.25,144.73c16.53,0,25.58,12.11,25.58,27.4,0,1.7-.34,5.32-.34,5.32H557.65C558.78,187.63,566.25,193,575,193c9.28,0,16.19-6.45,16.19-6.45l6,10A35.12,35.12,0,0,1,574,205.18c-19.13,0-31-13.81-31-30.23C542.93,157.18,554.93,144.73,572.25,144.73Zm10.87,22.75c-.23-6.91-5-11.66-10.87-11.66-7.36,0-12.57,4.42-14.15,11.66Z" transform="translate(-8.5 -8.39)"/></svg>